<svg xmlns="http://www.w3.org/2000/svg" viewBox="0 0 1095.62 853.17"><defs><style>.cls-1{fill:#f1f1f1;}.cls-2{fill:#eaf0ff;}.cls-3{fill:#fff;}.cls-4{fill:#3b3744;}.cls-10,.cls-5{fill:none;stroke-linecap:round;stroke-linejoin:round;}.cls-5{stroke:#1b3c87;stroke-width:2px;}.cls-6{fill:#46dbc9;}.cls-7{fill:#d7dfff;}.cls-8{fill:#b2c3fb;}.cls-9{fill:#fb5e64;}.cls-10{stroke:#b6c6fc;stroke-width:6.88px;}.cls-11{fill:#eecb55;}</style></defs><title>drawkit-grape-pack-illustration-11</title><g id="Layer_2" data-name="Layer 2"><g id="vector"><path class="cls-1" d="M986.81,287c69.23,56.19,88.8,157.77,68.49,244.42-20.12,86.75-79.94,158.68-153.22,197.43-73.19,39-159.74,44.71-240.3,66-80.66,21.44-155.34,58.47-238.6,58.3-83.35,0-175-37.28-256.12-98.47C86,693.77,15.7,609,12.14,526.28c-3.37-82.64,60-163.32,104.11-246,44.2-82.89,69-168.12,128.15-221.51s152.6-75.37,231-44.83S617.08,126.93,708,173.55C799.05,220.28,917.66,231.13,986.81,287Z"/><rect class="cls-2" y="64.38" width="1074.32" height="684.67"/><polygon class="cls-3" points="1065.4 714.35 1079.12 735.79 1095.62 749.71 1049.57 801.58 1059.3 754.81 1041.21 738.02 1065.4 714.35"/><path class="cls-3" d="M888.47,779.53c.42,3.37.78,11.78,1.24,17.51,2.47,4.74,3.89,9.07,5.81,12.66-4,4.73-35.06,33.13-37.29,34s-31.47,0-31.47,0c0-2.23,16-12.57,23.42-19.54,2.79-3.48,7.42-40.93,7.42-48.45Z"/><path class="cls-4" d="M991.48,496.83c1.06,7.72,5.34,109.46,5.34,125.8,6.16,7.49,63.73,81.93,63.73,90.76-6.8,7.68-16.06,16-21.69,21.15-3.56,3.27-91.57-91-93.18-95.85S931.76,605,931.76,598.26s27.31-96.12,27.31-96.12Z"/><path class="cls-5" d="M990.41,599.15c.26,8.11.41,14.35.41,17.48,6.16,7.49,63.73,81.93,63.73,90.76-5.62,5.71-17.33,16.31-21.69,21.15-4.82-.26-91.57-91-93.18-95.85S925.76,599,925.76,592.26s27.31-96.12,27.31-96.12l32.41-5.31c.64,4.67,2.47,43.83,3.81,77.61"/><path class="cls-4" d="M889.76,502.27c-1.57,8.69-32.62,271.26-32.62,279.58,3.63,4.68,24.59,5.35,28.23,3.12s36.2-156,38.91-165c10.16-6.77,51.81-101.16,51.8-115.48"/><path class="cls-6" d="M942.47,336.47c52,0,50.21,150,47.25,160.92s-101.36,12.37-101.57,3.88C886.1,421.37,880.61,336.47,942.47,336.47Z"/><path class="cls-5" d="M903.58,688.89c7.6-35.22,14.8-69.62,16.09-73.91,10.15-6.77,51.81-101.16,51.8-115.48"/><path class="cls-5" d="M872.63,599.13c-8.82,73.75-19,161.24-19,166.1,6.43,1.63,26.23,3.27,30.74,3.83,1.39-.85,6.46-22.15,12.36-48.67"/><path class="cls-5" d="M885.15,497.27c-.37,2-2.24,16.93-4.92,38.8"/><path class="cls-5" d="M874.47,822.06c-9.28,8.53-19,17.15-20.24,17.61-2.23.84-31.47,0-31.47,0,0-2.23,16-12.57,23.42-19.54,1.16-1.45,2.64-8.75,4-17.32"/><path class="cls-5" d="M852.37,786.2c.75-6.53,1.23-12.09,1.23-14.52l30.87,3.85c.42,3.37.78,11.78,1.24,17.51,2.47,4.74,3.89,9.07,5.81,12.66-1.07,1.25-4,4.14-7.81,7.75"/><rect class="cls-7" y="64.38" width="1074.32" height="88"/><rect class="cls-3" x="219.62" y="87.15" width="665.02" height="42.46"/><rect class="cls-8" x="930.35" y="87.15" width="107.24" height="42.46"/><circle class="cls-9" cx="37.81" cy="108.38" r="14.83"/><circle class="cls-9" cx="89.01" cy="108.38" r="14.83"/><circle class="cls-9" cx="140.21" cy="108.38" r="14.83"/><rect class="cls-10" x="462.51" y="256.49" width="263.52" height="299.52" transform="translate(91.39 921.33) rotate(-80.04)"/><circle class="cls-10" cx="400.92" cy="511.18" r="144.85"/><path class="cls-5" d="M953.52,501.65c-29.59,2.37-68.24.93-68.37-4.38-.63-24.5-1.58-49.48-.81-72.32"/><path class="cls-5" d="M886.1,399.67c4.48-39.09,17.78-67.2,53.37-67.2,52,0,50.21,150,47.25,160.92-.54,2-4.14,3.62-9.69,5"/><path class="cls-3" d="M953.52,347.26c0,4.93-22.81,4.49-22.41-2.09l2.09-34.67h20.32Z"/><path class="cls-5" d="M950.52,344.26c0,4.93-22.81,4.49-22.41-2.09l2.09-34.67h20.32Z"/><ellipse class="cls-3" cx="950.23" cy="281.48" rx="38.12" ry="25.54" transform="matrix(0.21, -0.98, 0.98, 0.21, 479.42, 1153.55)"/><path class="cls-5" d="M921.06,286.36a55.4,55.4,0,0,1,1.18-13.13,50.91,50.91,0,0,1,10.14-21.87"/><path class="cls-5" d="M946.13,315.88a17.72,17.72,0,0,1-6.73-.1c-7.49-1.57-13.18-7.9-16.12-16.65"/><path class="cls-11" d="M959.36,240.6c22,0,33,23.18,38,48,4,20,14,37,14,54,0,25.47-16.67,48-34,48-26.85,0-37-26.21-37-38,0-16.67,5-27.54,5-48,0-16.2-10-28.25-10-52C935.36,246.56,945,240.6,959.36,240.6Z"/><path class="cls-5" d="M937.74,354a27.48,27.48,0,0,1-.38-4.37c0-16.67,5-27.54,5-48,0-16.2-10-28.25-10-52,0-6,9.62-12,24-12,12,0,20.81,7,27.09,17.33"/><path class="cls-5" d="M995.39,376.3c-6,7-13.45,11.3-21,11.3A33.92,33.92,0,0,1,948.16,376"/><path class="cls-5" d="M995.7,291.43c4.53,17.52,12.66,32.85,12.66,48.17a59.45,59.45,0,0,1-5.49,24.92"/><line class="cls-5" x1="848.62" y1="764.6" x2="891.52" y2="769.95"/><line class="cls-5" x1="847.25" y1="770.89" x2="890.14" y2="776.24"/><line class="cls-5" x1="1028.96" y1="732.51" x2="1061.18" y2="700.84"/><line class="cls-5" x1="1031.95" y1="738.21" x2="1064.17" y2="706.55"/><polyline class="cls-5" points="1054.09 786.85 1044.57 797.58 1054.3 750.81 1036.21 734.02 1060.4 710.35 1074.12 731.79 1090.62 745.71 1067.94 771.25"/><path class="cls-3" d="M880.56,333.67A211.85,211.85,0,0,1,859.68,327c-2-4.45-27.66-98.72-32-116.91-2.76.23-6.29,4.7-3.75,14.16-4.85,3.93-12.76,11.84-.48,24.33.54,3.42,15.89,96,17.38,98,4.84,6.55,23.72,15.73,27.86,17.38C870,360.37,868,354.46,880.56,333.67Z"/><path class="cls-6" d="M933.34,376c4.2-12-34.92-45.65-46.29-46.56-6.66,3.42-22.64,29.9-19,42.91C880.61,380.3,926.39,395.83,933.34,376Z"/><path class="cls-5" d="M836.11,246.77c-4.79-17.8-8.89-33.39-10.39-39.73-2.76.23-6.45,3-3.92,12.46"/><path class="cls-5" d="M878.56,330.67A211.85,211.85,0,0,1,857.68,324c-1-2.31-8.44-28.85-15.94-56.37"/><path class="cls-5" d="M834.05,323.47c-4.9-26.27-11.25-69.6-12.56-77.94-4.49-3.77-10.22-14.61-4.9-19.31"/><path class="cls-5" d="M864.73,361c-3.89-.61-22.18-12.27-25.86-17.38a18.41,18.41,0,0,1-1.59-4.65"/><path class="cls-5" d="M911.25,381.66c9.14,0,16.6-2.59,19.09-9.7,2.66-7.59-12-23.85-26.05-35"/><path class="cls-5" d="M884.05,325.4c-6.66,3.42-22.64,29.9-19,42.91A88.62,88.62,0,0,0,882.15,376"/></g></g></svg>